<?xml version="1.0" standalone="no"?>
<!DOCTYPE svg PUBLIC "-//W3C//DTD SVG 20010904//EN"
 "http://www.w3.org/TR/2001/REC-SVG-20010904/DTD/svg10.dtd">
<svg version="1.0" xmlns="http://www.w3.org/2000/svg"
 width="627.000000pt" height="618.000000pt" viewBox="0 0 627.000000 618.000000"
 preserveAspectRatio="xMidYMid meet">

<g transform="translate(0.000000,618.000000) scale(0.100000,-0.100000)"
fill="#000000" stroke="none">
<path d="M3095 5493 c-465 -69 -762 -153 -1069 -303 -233 -114 -409 -233 -584
-394 -183 -169 -300 -316 -441 -551 -269 -448 -385 -869 -385 -1385 1 -512
122 -911 412 -1355 160 -246 384 -492 577 -635 356 -264 788 -442 1230 -505
648 -94 1396 92 1915 476 220 163 507 491 672 769 79 134 95 163 142 267 232
517 274 1136 115 1693 -80 281 -205 543 -394 830 -237 358 -627 669 -1085 867
-178 77 -298 113 -555 167 -225 47 -460 73 -550 59z m255 -95 c55 -27 131
-101 158 -154 21 -42 38 -96 47 -157 l6 -38 102 7 c133 8 174 -3 241 -66 l51
-48 250 -5 c219 -4 258 -7 315 -26 211 -68 348 -211 401 -419 18 -73 19 -126
19 -1616 0 -1704 4 -1600 -65 -1737 -74 -145 -229 -268 -405 -320 l-75 -22
-1120 -2 c-616 -1 -1167 2 -1225 6 -292 21 -494 172 -582 434 l-23 70 -3 1545
c-3 1734 -6 1643 69 1797 57 116 167 209 313 262 69 25 79 26 327 28 l255 2
45 44 c62 63 125 80 273 76 l112 -4 13 79 c19 121 60 185 155 241 97 57 254
67 346 23z"/>
<path d="M3125 5312 c-35 -11 -67 -33 -106 -72 -64 -63 -79 -106 -79 -218 l0
-70 -172 -4 c-158 -3 -176 -5 -209 -25 -51 -32 -64 -64 -63 -152 0 -91 18
-131 68 -155 30 -14 98 -16 615 -16 638 0 635 0 665 59 22 42 22 208 0 239
-28 40 -71 55 -137 47 -33 -3 -105 -3 -159 1 l-98 7 0 86 c-1 145 -59 234
-178 271 -76 24 -82 24 -147 2z m114 -107 c36 -18 79 -69 88 -103 10 -42 -31
-107 -83 -133 -54 -25 -91 -19 -139 23 -56 49 -59 118 -8 178 42 50 90 62 142
35z m-534 -367 c37 -16 43 -53 14 -84 -28 -30 -46 -30 -76 -2 -29 27 -29 43 2
73 28 29 26 29 60 13z m205 -13 c19 -23 4 -61 -30 -75 -26 -11 -33 -10 -50 5
-22 20 -26 55 -8 73 17 17 73 15 88 -3z"/>
<path d="M3160 5120 c-11 -11 -20 -24 -20 -30 0 -17 39 -50 59 -50 18 0 61 43
61 61 0 16 -32 39 -56 39 -13 0 -33 -9 -44 -20z"/>
<path d="M1880 4814 c-150 -40 -264 -159 -317 -329 -17 -57 -18 -134 -18
-1610 l0 -1550 22 -71 c27 -84 87 -179 146 -230 50 -43 162 -97 234 -114 39
-9 360 -12 1255 -13 l1203 -2 59 24 c179 72 308 202 356 360 20 62 20 100 20
1580 0 1648 2 1585 -56 1708 -56 118 -202 226 -343 253 -29 5 -148 10 -262 10
l-209 0 0 -81 c0 -95 -15 -135 -74 -192 l-40 -39 29 4 c17 1 29 8 28 14 -1 7
9 15 22 18 14 4 25 12 25 20 0 7 19 19 43 26 23 8 48 18 54 23 7 5 85 7 175 6
162 -4 164 -4 231 -37 83 -41 126 -95 156 -197 21 -70 21 -74 19 -1545 -3
-1400 -4 -1478 -21 -1525 -40 -110 -124 -189 -237 -222 -49 -15 -175 -16
-1205 -17 -1076 0 -1153 1 -1202 18 -77 26 -145 92 -191 185 l-37 76 -3 1480
c-2 1065 0 1497 8 1540 22 118 86 188 208 225 54 17 93 20 254 20 l191 0 -7
31 c-3 17 -6 62 -6 100 l0 69 -227 -1 c-167 0 -243 -4 -283 -15z"/>
<path d="M2471 4278 c-49 -46 -110 -109 -137 -140 l-49 -57 -30 30 c-36 34
-74 38 -100 9 -18 -20 -18 -21 26 -66 70 -72 95 -88 118 -72 48 34 321 304
321 318 0 18 -35 60 -50 60 -6 0 -50 -37 -99 -82z"/>
<path d="M2160 4321 c-90 -6 -122 -20 -139 -58 -17 -37 -14 -336 3 -378 27
-64 44 -69 263 -66 121 1 202 6 213 13 42 26 50 60 50 202 0 152 -4 159 -59
107 -31 -29 -31 -30 -31 -130 l0 -101 -180 0 -180 0 0 155 c0 85 -1 158 -2
163 -2 4 56 8 129 10 l132 3 30 36 c22 27 27 39 18 45 -13 8 -112 8 -247 -1z"/>
<path d="M2793 4230 c-38 -23 -36 -12 -33 -195 1 -111 5 -144 17 -157 14 -16
35 -18 149 -18 131 0 133 0 153 26 19 24 21 40 21 155 0 70 -5 140 -10 155
-18 47 -36 53 -155 54 -92 0 -115 -3 -142 -20z m217 -178 l0 -108 -85 0 -85 1
0 108 0 107 85 0 85 0 0 -108z"/>
<path d="M3217 4182 c-22 -24 -21 -38 2 -54 15 -10 131 -13 576 -11 583 2 574
1 575 44 0 39 -6 39 -580 39 -527 0 -558 -1 -573 -18z"/>
<path d="M3216 3934 c-22 -21 -20 -40 6 -58 20 -14 91 -16 573 -16 415 0 554
3 563 12 18 18 14 56 -7 68 -13 6 -210 10 -570 10 -486 0 -551 -2 -565 -16z"/>
<path d="M2419 3588 l-138 -143 -34 33 c-38 37 -66 41 -92 13 -17 -19 -15 -22
31 -76 27 -31 61 -63 77 -71 l27 -15 181 178 c176 174 179 178 164 201 -11 14
-26 22 -46 22 -26 0 -51 -21 -170 -142z"/>
<path d="M2062 3670 c-18 -11 -37 -32 -42 -46 -6 -14 -10 -97 -10 -185 0 -169
5 -194 50 -234 21 -19 34 -20 224 -17 218 4 221 4 252 63 14 27 17 286 3 294
-3 3 -23 -12 -43 -32 l-36 -36 0 -99 0 -98 -180 0 -180 0 0 160 0 160 79 0
c43 0 105 3 138 6 59 6 73 17 101 77 2 4 -70 7 -160 7 -145 0 -167 -2 -196
-20z"/>
<path d="M2783 3656 l-28 -24 3 -174 c3 -172 3 -173 29 -197 26 -22 30 -23
147 -16 167 9 160 1 164 209 l3 163 -26 31 -27 32 -118 0 c-111 0 -121 -2
-147 -24z m225 -311 c-2 -1 -40 -5 -85 -7 l-83 -5 0 128 0 128 83 3 82 3 3
-124 c1 -68 1 -125 0 -126z"/>
<path d="M3305 3593 c-43 -2 -85 -9 -92 -15 -19 -15 -16 -46 5 -57 30 -16
1119 -16 1137 -1 18 15 19 44 3 58 -13 10 -896 23 -1053 15z"/>
<path d="M3217 3322 c-23 -25 -21 -39 6 -57 21 -13 94 -15 578 -13 l554 3 10
28 c20 58 27 57 -580 57 -522 0 -553 -1 -568 -18z"/>
<path d="M2421 2956 l-143 -143 -33 35 c-26 29 -36 34 -58 28 -15 -3 -31 -15
-37 -26 -9 -16 -3 -28 36 -72 53 -60 88 -83 108 -71 25 14 346 332 346 343 0
17 -39 50 -58 50 -10 0 -83 -65 -161 -144z"/>
<path d="M2070 3042 c-56 -28 -61 -46 -58 -245 l3 -179 33 -29 32 -29 196 0
c217 0 234 4 260 67 14 32 21 283 8 283 -3 0 -23 -14 -44 -31 l-39 -32 -3 -96
-3 -96 -177 -3 -178 -2 0 159 0 159 135 7 c129 7 136 8 155 32 39 50 33 53
-132 53 -126 0 -159 -3 -188 -18z"/>
<path d="M2779 3011 c-24 -19 -24 -21 -21 -188 3 -165 3 -168 28 -190 22 -20
36 -23 102 -22 115 0 172 12 195 40 17 21 18 38 15 180 -4 207 3 199 -168 199
-111 0 -131 -3 -151 -19z m231 -181 l0 -120 -62 0 c-35 0 -73 -3 -85 -6 -23
-6 -23 -6 -23 120 l0 126 85 0 85 0 0 -120z"/>
<path d="M3472 2960 c-210 -4 -254 -8 -262 -20 -14 -22 -12 -28 13 -45 20 -13
101 -15 575 -15 304 0 557 2 562 5 14 9 12 51 -3 63 -15 13 -507 19 -885 12z"/>
<path d="M3212 2698 c-7 -7 -12 -20 -12 -29 0 -43 4 -44 585 -46 539 -2 553
-2 570 17 15 17 16 24 7 45 l-12 25 -563 0 c-425 0 -566 -3 -575 -12z"/>
<path d="M2479 2387 c-52 -52 -118 -119 -147 -150 l-53 -57 -30 35 c-38 42
-71 46 -95 9 -17 -25 -17 -25 47 -90 35 -35 70 -64 77 -64 18 0 362 340 362
358 0 16 -37 52 -54 52 -7 0 -56 -42 -107 -93z"/>
<path d="M2058 2413 c-43 -27 -48 -52 -48 -231 0 -148 2 -171 20 -199 32 -54
46 -57 255 -54 212 2 226 6 252 69 13 30 14 60 9 157 -4 65 -9 121 -12 124 -2
2 -20 -11 -39 -29 l-35 -34 0 -97 c0 -88 -2 -97 -20 -102 -11 -3 -92 -3 -180
0 l-160 6 0 161 0 161 132 1 132 1 23 29 c42 52 38 54 -139 54 -134 0 -168 -3
-190 -17z"/>
<path d="M2779 2381 c-24 -19 -26 -42 -19 -323 0 -10 9 -27 20 -38 18 -18 33
-20 139 -20 111 0 122 2 147 23 l27 24 1 155 c1 206 8 198 -164 198 -110 0
-131 -3 -151 -19z m231 -178 l0 -123 -84 0 -85 0 -3 121 c-2 66 -2 121 -1 122
1 1 40 2 87 3 l86 1 0 -124z"/>
<path d="M3212 2328 c-16 -16 -15 -43 1 -56 8 -7 203 -11 569 -13 446 -2 560
0 572 10 21 18 20 34 -2 54 -17 15 -71 17 -573 17 -418 0 -558 -3 -567 -12z"/>
<path d="M3218 2080 c-25 -15 -22 -46 4 -64 20 -14 90 -16 569 -16 526 0 547
1 563 19 11 13 15 27 11 40 -6 20 -13 21 -218 21 -117 0 -369 3 -562 6 -248 4
-355 2 -367 -6z"/>
<path d="M2425 1697 l-143 -143 -33 28 c-39 33 -58 35 -90 9 l-24 -19 50 -53
c27 -30 61 -62 75 -71 l26 -17 174 174 c96 96 176 179 178 185 6 17 -29 50
-51 50 -13 0 -74 -54 -162 -143z"/>
<path d="M2779 1791 c-22 -18 -23 -21 -20 -197 2 -147 5 -182 18 -196 14 -15
35 -18 143 -18 120 0 128 1 153 24 l26 24 -6 174 c-4 134 -9 177 -21 191 -13
14 -34 17 -142 17 -110 0 -131 -3 -151 -19z m231 -168 c0 -166 5 -158 -91
-159 l-79 -1 0 133 0 133 58 4 c31 2 69 4 85 5 l27 2 0 -117z"/>
<path d="M2062 1780 c-18 -11 -37 -32 -43 -47 -6 -17 -9 -97 -7 -200 l3 -173
33 -32 32 -33 201 0 201 0 34 37 34 38 0 133 c0 74 -3 136 -6 140 -4 3 -24 -8
-45 -25 l-39 -31 0 -104 0 -103 -180 0 -180 0 0 165 0 165 133 1 132 0 28 34
c16 19 26 39 22 45 -4 6 -67 10 -163 10 -139 0 -161 -2 -190 -20z"/>
<path d="M3347 1720 c-128 -5 -146 -11 -147 -45 0 -34 19 -35 586 -35 476 0
563 2 573 14 17 20 -2 54 -32 60 -34 7 -836 12 -980 6z"/>
<path d="M3222 1454 c-27 -18 -28 -36 -4 -57 17 -15 71 -17 569 -17 520 0 551
1 566 18 20 22 21 36 5 49 -8 6 -227 13 -563 17 -489 5 -553 4 -573 -10z"/>
<path d="M4744 656 c-38 -38 -43 -72 -17 -117 49 -83 163 -45 163 54 0 29 -7
46 -29 68 -40 39 -74 38 -117 -5z m96 -46 c17 -31 -12 -70 -50 -70 -16 0 -31
39 -24 65 8 32 58 36 74 5z"/>
<path d="M4790 600 c-14 -27 -8 -34 20 -25 12 4 20 13 18 23 -5 24 -25 25 -38
2z"/>
</g>
</svg>
